/* XPM */
static char *_248be6ebdd646e88db9043785d8acecqdBnoSZxKVs3i4Z8[] = {
/* columns rows colors chars-per-pixel */
"32 32 144 2 ",
"   c #8D6A28",
".  c #926C2D",
"X  c #99682E",
"o  c #9C772D",
"O  c #916631",
"+  c #956C30",
"@  c #9C7433",
"#  c #9C7937",
"$  c #9E7339",
"%  c #9F7C3B",
"&  c #AC7B2F",
"*  c #A47633",
"=  c #A27B33",
"-  c #AF7F33",
";  c #A47C3B",
":  c #AA7D39",
">  c #A87B40",
",  c #A58137",
"<  c #AD8235",
"1  c #A6833D",
"2  c #AC843C",
"3  c #AE893B",
"4  c #B38536",
"5  c #B58A36",
"6  c #BA8A33",
"7  c #B4853C",
"8  c #B58B3C",
"9  c #BA8C3C",
"0  c #B6913B",
"q  c #BD933D",
"w  c #C18D36",
"e  c #C28E3C",
"r  c #C29335",
"t  c #CB9436",
"y  c #CA9B36",
"u  c #C3933C",
"i  c #CA953C",
"p  c #C6993D",
"a  c #CC9C3D",
"s  c #D19D3E",
"d  c #CBA13D",
"f  c #D3A23E",
"g  c #AB8240",
"h  c #B08541",
"j  c #B88742",
"k  c #B48C42",
"l  c #BC8D43",
"z  c #B18548",
"x  c #B58F4B",
"c  c #BE8D48",
"v  c #B79143",
"b  c #BD9343",
"n  c #BC9943",
"m  c #B69049",
"M  c #BC934A",
"N  c #BF984B",
"B  c #C28F40",
"V  c #C39544",
"C  c #CB9642",
"Z  c #C49A44",
"A  c #CB9B43",
"S  c #C2954A",
"D  c #C69B4B",
"F  c #CB9D4A",
"G  c #D29E44",
"H  c #D39E4A",
"J  c #CB9E52",
"K  c #CDA344",
"L  c #CCA049",
"P  c #CEA04A",
"I  c #CAA04E",
"U  c #CFA14C",
"Y  c #CEA14C",
"T  c #CBA24B",
"R  c #CFA849",
"E  c #D2A041",
"W  c #D1A043",
"Q  c #D4A742",
"!  c #D0A145",
"~  c #D3A045",
"^  c #D2A145",
"/  c #D1A345",
"(  c #D3A246",
")  c #D4A146",
"_  c #D6A347",
"`  c #D1A544",
"'  c #D0A445",
"]  c #D1A447",
"[  c #D5A445",
"{  c #D3A344",
"}  c #D8A343",
"|  c #DBA742",
" . c #DAA643",
".. c #D8A347",
"X. c #D3A947",
"o. c #D4A946",
"O. c #DCAB45",
"+. c #D0A04B",
"@. c #D1A34B",
"#. c #D2A548",
"$. c #D2A54A",
"%. c #D1A64A",
"&. c #D3A64B",
"*. c #D5A749",
"=. c #D4A74A",
"-. c #D6A74B",
";. c #D3A34F",
":. c #D2A64F",
">. c #D4A74C",
",. c #D3A44A",
"<. c #DAA549",
"1. c #DAA549",
"2. c #D0A848",
"3. c #D7AB48",
"4. c #D6AA49",
"5. c #D5A94A",
"6. c #D5A84D",
"7. c #D6AB4C",
"8. c #D7A84E",
"9. c #D4AB4F",
"0. c #D5AE4F",
"q. c #D6A94B",
"w. c #DEA949",
"e. c #D8AC4B",
"r. c #DDAB4C",
"t. c #DAAA4D",
"y. c #C6A153",
"u. c #C8A551",
"i. c #CCA653",
"p. c #CCA455",
"a. c #D3A651",
"s. c #D3AC51",
"d. c #D5AB52",
"f. c #D8AB50",
"g. c #DBA952",
"h. c #DAAF51",
"j. c #DAAC52",
"k. c #D1A75B",
"l. c #D6A958",
"z. c #D4AA58",
"x. c #DDB256",
"c. c #DBB052",
"v. c #E1AE53",
"b. c #E3BA62",
/* pixels */
"l.:.L V @.5.x.b y.K @.M x F F = u.K ' R 0.5.6.n A A V A u ' j.A ",
"L p u u A a X.9 V s s 9 9 i i < V A s a a s ^ 7 8 7 7 S B A Y Z ",
"A r a G ^ d e.q 9 G G 9 l i C l Z r. .=.^ w.v.9 b V e e w G =.&.",
"F u G H H W f.8 8 &.6.l l A A k 1 V 9 b 8 V S . q L A i t  .[ d ",
";.a ^ H G a 6.4 M K =.b k p A 3 v A u Z 0 u Z o b D V G G <.^ K ",
"&.y a A K y 2.9 V a } Z V W _ b S F C A 9 u H 7 b D u A G _ &.Z ",
"Y A ' @.>.K s.M k C G 9 V ) H l S C ^ @.A G f.b 9 F V &.5.6.6.q ",
"7 9 V l b 9 v @ # S V @ g b 8 + % * 4 k k 9 k   * g * b b 9 b 2 ",
"b q D q Z q k @ i.K D V F V q 2 D T 9 S 9 q b ; Z D S F V b b = ",
";.C F C C A F 9 Z d A u A A K k 7 u q V A p T 8 u F V e u 6 V D ",
"F u A C u A J c Z K G i s a a 4 q Z u C A i &.9 V H C i ) r V D ",
"9 4 8 q 5 b N ; S p A ..w.A A j V A u C C i _ l b b Z @.t.A D 2 ",
"p.V b F Z T p.2 l r i <.w.a K c V F u G C a _ l b D L &.Q K T 8 ",
"L u u G a a ;.b V a A O.| f o.l Z K r A a f ' q u @.G y y s a 9 ",
"A C A _ _ A j.D b K :.j.' K c.S V K p @.&.o.j.S 9 V A u a =.;.u ",
"2 8 b 9 V b N o ; 0 l D 9 4 b ; : 8 9 c V 5 k + = = M k 8 9 S = ",
"J c b $ z > 2 @ x 9 F Z 9 9 V 1 N Z q D T Z b : v a.F g ; F V : ",
"F A K : 8 M T 8 k w A A a C <.l V A A ;._ ) A 7 Z o.^ N N e.5.V ",
"&.a K 9 9 b L 7 M C G A i C G j V A A H A y a & b a a Z 9 a W F ",
"=.a =.S V b A 7 ; 5 l b V 9 9 = b D T Y Z K a.k b _ j.l.Z W _ F ",
"t.^ =.l 6 9 A j m Z F T s.F K M b Z A A p X.h.v S G ^ D 9 a ) D ",
"' u p 9 A A a - F f G d K G [ D Z ^ W s a Q 5.7 b a ) T Z Q [ D ",
"6.q 4 * F L &.c F W ) &.2.,.e.S F 6.t.<.<.e.a.8 b ' K M k ' e.T ",
"9 l k + b b 9 X k q b 0 0 b b # 2 b V V V q 8 . = u 7 @ ; F A 2 ",
"k.S 7 9 c b D ; M b 7 . 1 D D 1 k V e u Z u A , M D q V V u A 9 ",
"Z q 6 i V u K 8 u G e.V q a ..q 7 i i A A C ..l < F A F A a &.V ",
"u u r a C y o.9 V H A 4 9 G e.5 < G H e.A C G l < A A A A a ' A ",
"F C i i C G e.7 b f.A q L 5.c.0 = Z V Z 5 9 u @ Z &.a ) <.f ) A ",
";.V u i C G =.j D A u T s.o.c.n k p q 0 q V @.2 A 5.f ..) a ^ V ",
">.u y A C a ' c V u C a.u t j.D V s a K A i r.b V =.f C a ) x.J ",
"L Z ^ ^ F A A h Z ^ E 5.' w.r.9 V G _ f.A u _ l V @.W G G j.b.J ",
"9 l Z V j l 9 O 1 D V b T A 8 % : u l N 3 k V @ 4 u a @.A A T 1 "
};
