/* XPM */
static char *c8a49f1b4ddd436fa1e500dac1f16ed9C8NjEiJfjzGCChEV[] = {
/* columns rows colors chars-per-pixel */
"32 32 189 2 ",
"   c #010E17",
".  c #030E1B",
"X  c #05121C",
"o  c #051523",
"O  c #061825",
"+  c #091B25",
"@  c #051C2C",
"#  c #0A1D2D",
"$  c #111E2A",
"%  c #191C2D",
"&  c #051D33",
"*  c #0A1D33",
"=  c #071F39",
"-  c #0B1F38",
";  c #03202E",
":  c #0C232D",
">  c #10222C",
",  c #062233",
"<  c #0A2333",
"1  c #052935",
"2  c #092D36",
"3  c #06243C",
"4  c #0B243B",
"5  c #052B3B",
"6  c #0A2A3C",
"7  c #122334",
"8  c #192637",
"9  c #172937",
"0  c #112339",
"q  c #132C3E",
"w  c #18283F",
"e  c #07323B",
"r  c #0A323D",
"t  c #062642",
"y  c #0C2542",
"u  c #062A43",
"i  c #0C2B44",
"p  c #0E2648",
"a  c #072F48",
"s  c #0D2D4B",
"d  c #102643",
"f  c #132C45",
"g  c #182E46",
"h  c #132549",
"j  c #122C4C",
"k  c #063445",
"l  c #0A3244",
"z  c #083846",
"x  c #07354D",
"c  c #0C324C",
"v  c #063B4B",
"b  c #0B3A4C",
"n  c #143143",
"m  c #11324C",
"M  c #0F2E52",
"N  c #112E52",
"B  c #0D3352",
"V  c #0D3B55",
"C  c #0E355A",
"Z  c #0E3C5A",
"A  c #123453",
"S  c #133A55",
"D  c #143659",
"F  c #173559",
"G  c #13345D",
"H  c #11375E",
"J  c #14345D",
"K  c #13345A",
"L  c #19365E",
"P  c #16385B",
"I  c #133C5A",
"U  c #153C5B",
"Y  c #12385F",
"T  c #103B5E",
"R  c #133B5E",
"E  c #16385D",
"W  c #16395F",
"Q  c #103E5F",
"!  c #113C5F",
"~  c #153E5E",
"^  c #153C5D",
"/  c #143B5B",
"(  c #183A5D",
")  c #193C5C",
"_  c #0D3B62",
"`  c #0D3E69",
"'  c #123761",
"]  c #113762",
"[  c #113863",
"{  c #133962",
"}  c #153B62",
"|  c #143B64",
" . c #113E65",
".. c #173C66",
"X. c #163D66",
"o. c #133C63",
"O. c #1A3B62",
"+. c #163C69",
"@. c #1C3F69",
"#. c #1A3E6B",
"$. c #223462",
"%. c #263E6C",
"&. c #074054",
"*. c #0D4154",
"=. c #0E425B",
"-. c #114259",
";. c #18415D",
":. c #0D4566",
">. c #0F4462",
",. c #0E4965",
"<. c #0F4F6B",
"1. c #114263",
"2. c #114366",
"3. c #124166",
"4. c #164066",
"5. c #164267",
"6. c #154166",
"7. c #144264",
"8. c #1A4067",
"9. c #194067",
"0. c #1B4164",
"q. c #144863",
"w. c #16436A",
"e. c #154269",
"r. c #15436B",
"t. c #194069",
"y. c #184268",
"u. c #1A446A",
"i. c #1A406F",
"p. c #19436D",
"a. c #1B446C",
"s. c #13496D",
"d. c #144B6B",
"f. c #194A6D",
"g. c #0F506C",
"h. c #10516D",
"j. c #164772",
"k. c #1C4072",
"l. c #1B4572",
"z. c #164E73",
"x. c #154F74",
"c. c #154C73",
"v. c #1A4C71",
"b. c #1C4B74",
"n. c #1E4679",
"m. c #1D4C7A",
"M. c #0E5F7A",
"N. c #145374",
"B. c #1D5175",
"V. c #135877",
"C. c #155579",
"Z. c #1C547B",
"A. c #165979",
"S. c #1B5B7D",
"D. c #204066",
"F. c #22446D",
"G. c #214471",
"H. c #224974",
"J. c #234B75",
"K. c #224C7A",
"L. c #245077",
"P. c #22537C",
"I. c #12627E",
"U. c #1A667E",
"Y. c #1E5685",
"T. c #145D81",
"R. c #1B5B83",
"E. c #1E5E8A",
"W. c #214F80",
"Q. c #215382",
"!. c #225B84",
"~. c #215B88",
"^. c #176281",
"/. c #1C6384",
"(. c #136D87",
"). c #1C6B84",
"_. c #1C648C",
"`. c #176E8A",
"'. c #1D6D8E",
"]. c #15708D",
"[. c #1D718E",
"{. c #1D6490",
"}. c #1B6990",
"|. c #1E7297",
" X c #26668D",
".X c #21698F",
"XX c #266090",
"oX c #226B94",
"OX c #207793",
/* pixels */
"$ $ > : 7 7 9 > % 0 w 8 7 f g 7 7 q l n f 6 q 9 < < : : : : # # ",
"@ @ , , 6 3 6 & & 3 a i 5 x x 3 i c x s s a a = * * < < : : @ O ",
"& , 1 5 k u s 3 3 s A m s C C i s V V A A B c 3 * 4 6 1 1 < < O ",
"- < 2 e z k j y h N J j p K G j 3 c B s y u u * y i i 5 5 5 < * ",
"- 4 r r b c A p D 6.6.K C  .6.A s U ~ A s s s 4 y i c k l i 4 & ",
"y u k x C C E M B 1.2.V V 2.2.B ] w.2.[ G T S s p s j i a i 4 < ",
"3 y s B K C E M A 8.t.P ( u.8.A T w.2.| [ ~ T A i i i i y 4 4 4 ",
"# - 4 p j j j 4 N X.X.A D t.} j N U ~ D N s c d y y y d 4 4 * & ",
"3 u s c I [ X.B $.i.k.H.H.n.m.i.@.v.x.c.s.:.~ A s T T s u u 3 * ",
"4 f c c S G 8.A O.c.b.B.b.m.Z.a.a.N.V.V.A.N.d.C D o.o.S A s t 0 ",
"@ 3 a k x C O.s 7.C.Z.B.b.b.Z.a.#.B.A.A.A.V.f.G A _ _ I A c t 4 ",
"4 p c b V | F.A 0.Z.P.L.J.K.Q.F.G.P.S.A.A.V.x.+.D 2.2.I I C s 4 ",
"d j B V Z [ G.( O.Z.m.Z.P.Q.~.b.l.A.M.M.I.I.C.` J  .2.Z V V x < ",
"4 j A I 7.[ a.) a.R.~.!.!.XXoXZ.a.Z.S./././.S.a.E  .e.;.I S c 4 ",
"@ p u a S C } B 0.N.Z.Z.Z.Q.R.d.J a.b.m.b.f.w.L B C o.A s c s 4 ",
"4 g 3 3 A O.@.A ) f.b.L.J.K.K.0.D.b.b.m.m.s.6.D S w.t.A y s m < ",
"B N j i A #.J.7.l._./. XoXoXoXK.b.R.Y.P.!.Y.m.:.O.b.j.T s K B i ",
"c B N s A | l.o.v.).U.).[.'.'.v.%.m.R./.^.T.x.O.E j.c.5.A I A j ",
"c A F m A [ l.7.m.R.S.'.|.{.E.m.G.K./.^.A.T.T.a.K s.c.q.V V c i ",
"m A N s A ] i.~ m.S.S.[.OX X!.H.j.W.!.B.f.R.E.c.E b.x.d.-.I c i ",
"c s s s P X.t.P c.R./.(.]..X/.c.b._.'.S.I._.~.c.D p.s.>.B C c 3 ",
"u s i i ) ....A m.Z.!./._.E.R.m.b._.}./.`._.Z.a.F +.` C c S A y ",
"& y y 4 A G K i O.Z P ) 8.6.:.O.O.l.m.K.m.m.i.D j K B s 4 s y < ",
"4 f f 4 m K K f G 2.) N N a.N.O.S w.Z.A.c.C.N.V f A B g 0 4 4 < ",
"4 4 l z b V A A O.g.<.O.O.N.C.#.] e.x.A.Z.N.h.~ s A Z &.v k 6 3 ",
"- 4 l b *.I S A J ,.d.O.O.N.A.#.K a.Z.S.f.,.,.D p c -.*.b l 6 < ",
"4 6 z *.*.V m s P ,.d.O.O.C.A.w.M O.f.d.7.>.=.u i A -.*.b r < @ ",
"4 6 z v v z c i S =.q.E T N.A.w.A P Z >.7.q.-.u i B V b z 2 < @ ",
"< 6 l z k l i f c V *.B V ,.d.o.B S =.>.~ =.=.s u x b k e 2 < , ",
"# < 6 6 5 6 < < i b b c A *.V c s c V -.A b b f 4 i k l 2 < : @ ",
"o O # # @ @ @ o 4 l l i m l 6 4 4 i k m f i l < # < < < # + o o ",
"    . o o O O X O < , , q 4 & * * 4 6 4 * @ ; o o O O o X X X . "
};
