/* XPM */
static char *_3aa03041afc47cdacab2922f541ca54JrSVSiFKFMF5380S[] = {
/* columns rows colors chars-per-pixel */
"32 32 192 2 ",
"   c #402900",
".  c #422F0E",
"X  c #4C2F0D",
"o  c #4C310C",
"O  c #463114",
"+  c #4A3315",
"@  c #513511",
"#  c #573B14",
"$  c #5B3D13",
"%  c #50361B",
"&  c #53381A",
"*  c #613F11",
"=  c #5C4215",
"-  c #5C421B",
";  c #644415",
":  c #6B4A15",
">  c #6A471B",
",  c #624A1E",
"<  c #6D4B1A",
"1  c #724F16",
"2  c #734E1D",
"3  c #7A4F1A",
"4  c #6F511B",
"5  c #755413",
"6  c #74521C",
"7  c #7B531D",
"8  c #7D5A1D",
"9  c #604822",
"0  c #724E23",
"q  c #7A4D23",
"w  c #745323",
"e  c #7C5523",
"r  c #775821",
"t  c #7C5924",
"y  c #76552A",
"u  c #79522B",
"i  c #7D5E28",
"p  c #83551C",
"a  c #845B1D",
"s  c #8B5C1D",
"d  c #8C631D",
"f  c #91671F",
"g  c #9C6F1E",
"h  c #A1741F",
"j  c #845625",
"k  c #835B23",
"l  c #8A5D24",
"z  c #835E2A",
"x  c #8A5F2C",
"c  c #905D23",
"v  c #856123",
"b  c #8B6324",
"n  c #8F6825",
"m  c #87652A",
"M  c #8C642A",
"N  c #8D6828",
"B  c #926523",
"V  c #986725",
"C  c #946A25",
"Z  c #9B6A25",
"A  c #94652A",
"S  c #99662A",
"D  c #946C2C",
"F  c #9B6C2C",
"G  c #9C7226",
"H  c #9F7D26",
"J  c #95712C",
"K  c #9C722D",
"L  c #98782F",
"P  c #8F6630",
"I  c #8F6A33",
"U  c #966D32",
"Y  c #996B31",
"T  c #977132",
"R  c #9B7332",
"E  c #9D7933",
"W  c #A16C25",
"Q  c #A86F22",
"!  c #A16F2C",
"~  c #A47327",
"^  c #A3742C",
"/  c #AC762B",
"(  c #A47B2D",
")  c #AB7B2D",
"_  c #A47532",
"`  c #A37C35",
"'  c #AB7D33",
"]  c #A0743B",
"[  c #A47D3A",
"{  c #A87C38",
"}  c #B17D31",
"|  c #B07F3A",
" . c #AA7E41",
".. c #A4822B",
"X. c #AF812D",
"o. c #B2842D",
"O. c #B78E2F",
"+. c #BB8A2E",
"@. c #A58332",
"#. c #AC8335",
"$. c #AF8A32",
"%. c #A7823A",
"&. c #AC843B",
"*. c #AF893A",
"=. c #B38333",
"-. c #B98730",
";. c #B48A33",
":. c #BC8C33",
">. c #B2853B",
",. c #B48A3B",
"<. c #BA8C3B",
"1. c #B79033",
"2. c #BD9136",
"3. c #B3923D",
"4. c #BB923C",
"5. c #BF9B3A",
"6. c #C39434",
"7. c #CA9336",
"8. c #C49D34",
"9. c #CA9B36",
"0. c #C3943C",
"q. c #C9953C",
"w. c #C49B3B",
"e. c #CC9D3C",
"r. c #D19B37",
"t. c #D29D3E",
"y. c #C7A43E",
"u. c #CCA23E",
"i. c #D4A33C",
"p. c #D8A43E",
"a. c #D4AA3D",
"s. c #A58240",
"d. c #AE8444",
"f. c #A8814A",
"g. c #B38740",
"h. c #B38D46",
"j. c #B68B43",
"k. c #B98E40",
"l. c #BB8E43",
"z. c #B68E48",
"x. c #B69142",
"c. c #BB9240",
"v. c #BF9740",
"b. c #BE9344",
"n. c #BC9343",
"m. c #BC964B",
"M. c #BF9849",
"N. c #C59641",
"B. c #C59646",
"V. c #C49545",
"C. c #C49344",
"Z. c #CA9742",
"A. c #C09841",
"S. c #C59841",
"D. c #C49A43",
"F. c #C99B43",
"G. c #CC9A43",
"H. c #C99D42",
"J. c #CC9E40",
"K. c #C89C45",
"L. c #CE9F45",
"P. c #CB9D43",
"I. c #C09748",
"U. c #C39849",
"Y. c #C29C4B",
"T. c #C19D4F",
"R. c #C49C49",
"E. c #CF9C49",
"W. c #CC9E4A",
"Q. c #D29C42",
"!. c #CFA141",
"~. c #CBA343",
"^. c #CDAC43",
"/. c #CFA448",
"(. c #CDA34A",
"). c #CDAC4C",
"_. c #D6A640",
"`. c #D2A445",
"'. c #D8A740",
"]. c #D3AA44",
"[. c #D9AA44",
"{. c #D2A549",
"}. c #D9A248",
"|. c #D4AA4B",
" X c #DAAA4A",
".X c #DEB247",
"XX c #D6B34F",
"oX c #D5AD53",
"OX c #DCB550",
"+X c #E0AF46",
"@X c #E3B051",
"#X c #E4B951",
/* pixels */
"0 6 p c S ~ &.F [ ) <._ ` <.<.P #.O.4.0.;.=.o.K x k a k 7 2 < : ",
"2 7 l S ! ) >.D ( o.:.( #.:.:.[ B.~.e.q.6.0.q._ N D B l 3 7 6 6 ",
"2 8 b F / ) ,.K %.0.G.' >.0.0.d.` 4.<.n.k.>.,.k D ` F B p p 7 6 ",
"k b C ! ) o.<.K &.<.E.g.>.2.N.[ [ 3.>.&.( ` #.m J ` ^ Z c l k 1 ",
"k b C _ ' ;.b.` ,.6.J.c.v.9.e.*.B.e.G.0.:.:.:.' K ` K ! S l 7 : ",
"t b K { >.4.M.[ &.F.F.&.Y.{./.h.U.w.S.N.0.B.S.>.R %.K _ F l k r ",
"w 8 n F ^ ( ` b K <.=.D &.;.,.T J H ` *.&.&.@.v b K d n v 7 6 < ",
"w k D R ` @.&.I T.F.K.m.T.2.4.s.z.S.>.,.>.#.,.U ] d.K J m 6 < * ",
"l B Z ' ,.2.S.>.L.i.`.`.'.i._.l.4.0.6.0.e.6.F.>.>.<.=.F S 8 6 w ",
"k d G ) =.:.S.&.v.~.|.e.{.|.|.&.b.K.q.Z.q.q.S.j.;.0.o.) ' d 5 r ",
"u k Y _ >.,.z.U ~.8.~.[.#Xu.u.,.4.~.q.Q.7.9.J.b.#.;.o.>._ C 8 2 ",
"m C ( =.0.u.(.&.0.6.J. X@X`. Xl.R.|.e.Q.t.t.{.n.j.c.<.<._ _ N 2 ",
"M C ~ =.+.6./.x.0.a.'.+X'.[..X:.w.u.9.t.i.i.].4.#.4.O.X.( Z a 6 ",
"a C ) <.q.e./.n.n.y.~.OX/./.XXY.4.~.~.{. Xu.{.c.#.;.;.=.^ G n t ",
"q k U U  .^ ` l f.c.x.I.&.%.x.T d.j.j.z.x.#.#.Y K ' ) _ l b k > ",
"b J ` n &...M.&.j.w.e.].F.0.|.<.W./.5.).).^./.,.,.oXS.>.F ` N 6 ",
"D ^ ' f ' <.K.*.x.0.}.Q.}.r. Xc.v.~.~.{.F.u.~.#.@.w.2.1.( g B v ",
"D ~ =.' ,.:.N.,.3.0.w.u.8.9.~.*.S.~.u.{.J.e.~.<.%.F.F.4.K W F m ",
"G ~ } ^ ' o.q.>.[ <.<.(.D.q.b.R M.(.{./.L.{.oXI.&.q.0.0.^ ~ F a ",
"D ! ^ G #.:.q.#.(.}.t.|. Xi.@XR.v./.~.F.F.{.|.D.,.e.6.w.` ) V a ",
"z l p b &.2.0.&.F.`.e.~.`.e. XD.~.].a.].].a.u.2.@.~.4.;.R K B k ",
"t x e t E ;.<.` 4.~./.oX).].~.3.M.oXoX(.(.|.(.#.J M.#.J I T P i ",
"6 k j k C h ( 8 ` #.' J L *.*.E K k.4.>.>.4.,.C N ' K d z b k < ",
"8 p l U E X.C.] 4.Z.E.( 4.{.oXc.4.w.w.~./.w.w.b.[ <.>.` U d l 5 ",
"< 7 c W Q / ' ^ >.:.J.>.,.e.`.*.' 6.:.~.~.:.:.n.K ' ) / W S k 1 ",
"< 7 l Z W ~ ' K #.q.0.' c.`.|.*.` {.L.H.4.<.:.( K ' ) / Z A k 6 ",
"2 2 p c B ^ R N %.<.=.>.U.e. Xx.U 4.<.#.( | =.a D { ) ~ V l 7 < ",
"< 2 7 s s B U m K ) ) ,.<.+.{.,.%.:.o.;.$.>.:.K N _ F V s a 2 < ",
"; 2 e k p a b k C ^ =.#.) -.0.^ ] ) ' j.%.! ' T k D d s p 7 2 6 ",
"; > 0 t 7 e t < v R _ K ( ' ^ N n h ~ #.( C G v 7 m k k e w < : ",
"o X @ # $ ; = o 4 z k v D n k r 2 a k v z e k ; $ : ; : $ # o   ",
"O + % & @ # 9 - = 0 w r 8 e y , y k e r w ; 6 - - - $ # o + + . "
};
