/* XPM */
static char *_80612fff54548ac8c06a6dae9f86d59[] = {
/* columns rows colors chars-per-pixel */
"32 32 155 2 ",
"   c #031206",
".  c #031609",
"X  c #051C0B",
"o  c #081909",
"O  c #061E10",
"+  c #05240D",
"@  c #0B240E",
"#  c #032C0E",
"$  c #0A2D0F",
"%  c #05320F",
"&  c #062511",
"*  c #092411",
"=  c #062C12",
"-  c #092C13",
";  c #0E2E19",
":  c #112D15",
">  c #063314",
",  c #0A3315",
"<  c #063A16",
"1  c #0A3A16",
"2  c #073519",
"3  c #0B3519",
"4  c #063B19",
"5  c #0B3C1B",
"6  c #103315",
"7  c #11341A",
"8  c #12391A",
"9  c #153818",
"0  c #113F1A",
"q  c #103F1D",
"w  c #103F1F",
"e  c #113B1C",
"r  c #0D3F21",
"t  c #113E21",
"y  c #183F22",
"u  c #0C4417",
"i  c #04401A",
"p  c #05411B",
"a  c #07401F",
"s  c #07431D",
"d  c #04471C",
"f  c #06441C",
"g  c #084219",
"h  c #0B421B",
"j  c #09431B",
"k  c #0E401A",
"l  c #0D411B",
"z  c #09411C",
"x  c #0B431C",
"c  c #0A421D",
"v  c #09411E",
"b  c #0A421F",
"n  c #0C401C",
"m  c #0D411D",
"M  c #0E401D",
"N  c #0D401F",
"B  c #0F411E",
"V  c #0C421E",
"C  c #0F431F",
"Z  c #09461C",
"A  c #08461F",
"S  c #0D441D",
"D  c #0F461F",
"F  c #0B431D",
"G  c #064A1D",
"H  c #0A4A1E",
"J  c #12401C",
"K  c #13401F",
"L  c #10441E",
"P  c #10491C",
"I  c #06551D",
"U  c #095D1F",
"Y  c #0A4320",
"T  c #0B4320",
"R  c #0E4120",
"E  c #0A4620",
"W  c #0B4721",
"Q  c #0D4520",
"!  c #0E4621",
"~  c #0D4623",
"^  c #0D4721",
"/  c #0C4421",
"(  c #074C20",
")  c #054E21",
"_  c #054B21",
"`  c #0B4920",
"'  c #0A4821",
"]  c #0A4B21",
"[  c #0E4822",
"{  c #0F4923",
"}  c #0E4B22",
"|  c #0D4923",
" . c #0E4C23",
".. c #0F4C23",
"X. c #0F4B25",
"o. c #0A4C26",
"O. c #0B4F26",
"+. c #0E4C25",
"@. c #0C4C27",
"#. c #0D4E26",
"$. c #0C4C23",
"%. c #0F4D28",
"&. c #114020",
"*. c #104322",
"=. c #124421",
"-. c #114423",
";. c #104622",
":. c #114723",
">. c #154724",
",. c #124422",
"<. c #104821",
"1. c #104823",
"2. c #114B23",
"3. c #104E27",
"4. c #124B25",
"5. c #124B29",
"6. c #065422",
"7. c #0C5122",
"8. c #0A5125",
"9. c #0F5725",
"0. c #0B5425",
"q. c #055A23",
"w. c #065D26",
"e. c #085D22",
"r. c #0C5827",
"t. c #0A5C24",
"y. c #075528",
"u. c #0D5128",
"i. c #0F532A",
"p. c #0E5529",
"a. c #0D5529",
"s. c #055D2B",
"d. c #0B5D2A",
"f. c #115327",
"g. c #11522A",
"h. c #12532A",
"j. c #115B28",
"k. c #125B2C",
"l. c #185D31",
"z. c #086024",
"x. c #0B6326",
"c. c #056923",
"v. c #07642F",
"b. c #0C642B",
"n. c #056E29",
"m. c #0B6A2D",
"M. c #11662D",
"N. c #126D2C",
"B. c #07752E",
"V. c #0D722E",
"C. c #0D6531",
"Z. c #0C6C34",
"A. c #156232",
"S. c #126E31",
"D. c #127131",
/* pixels */
"X * - > > , - - & ; , = > 3 , $ - 5 5 1 1 1 3 + & & - % # & & O ",
"* & , 1 1 1 , & # 5 -.1 5 -.R > 3 Y E S m Y 5 & + - 1 1 > , & X ",
"+ & > 1 5 5 , & = 4 c 5 1 < < 8 & 5 1 5 3 3 2 * & , 1 1 1 > & + ",
"+ = 3 5 h m 1 > , 1.{ , # h { 9 & 1 1 , = > , @ , 3 5 1 < > - & ",
"& , 5 m S m 5 5 5 u.8.< 5 p.u.> > {  .c 5 4 5 # = 1 5 5 5 1 = + ",
"+ - 1 1 5 5 5 1 5 ` ` 5 5 A s > 1 1. .m 5 m m , = , 1 1 1 , - + ",
"+ & - > 1 1 1 > > -.>.1 > q &.1 1 m 5 3 , 3 9 : = , , > = - & * ",
"* & - 3 5 5 1 , c 5 5 m -.&.5 4 1 c s 5 1 > > & & , , - = & & X ",
"= > m ^ { s Y < 9 E ^ 3.#.^ O.q 5 ` r.j.9.7.c , 3 m 1.l 0 < , * ",
"- ; 3 > < 1 J 3 J O.#.g.X.^ #.q c ) w.x.e.q.) 4 1 p f A h p 2 & ",
"+ ; 9 1 l 5 q , A y.u.u.{ ^ O.c 5 ] w.e.e.w.] 5 3 c f H c c > & ",
"+ , 5 p f h S 1 5 u.3.4.-.>.g.&.e { t.t.e.w.#.5 8 5 h S S R , * ",
"- 3 R A A f 4.m c 8.O.#.#.f.d.` R 8.b.x.x.x.a.E 5 A ] ` #.E 4 = ",
"+ - 9 &.-.5 m < -.p.u.p.p.k.C.8.5 A 9.r.9.r.#.5 3 c { 5 m 5 5 & ",
"+ + & = 1 1 5 > 6 A m { S L { 1 1 4 A S S h 5 , , 5 5 , - , - @ ",
", - - = 3 R 4.4 m y.a.d.p.u.p.S ^ ` o.5.:.E c 1 5 5.{ 5 = 1 3 - ",
"2 > , , 5 5 :.5 u S.S.D.D.m.Z.H t %.h.9.d.k.-.5 5 A  .L < h R , ",
"3 3 3 , 1 4 ^ 5 7.M.e.n.B.b.b.G -.f d.b.b.d.G 5 4 f u.3.A ` W 2 ",
"5 5 3 , 1 4 ^ m  .r.I c.V.M.d.A X.E d.0.P k.d.m 5 A #.{ p s R 2 ",
"2 2 , > 1 4 R 5 1.b.b.N.D.S.C.:.E 8.A.H u A.d.m 4 _ p.h.#.O.s = ",
", , - > r m R 1 ` v.b.m.N.m.s.c =.s.Z.C.Z.Z.r.-.7 5 5 1 1 5 e : ",
"= - - > r r 5 > A  .2.0.k.f.#.m y y.d.k.C.s.A m , 4 4 > 5 Y 5 ; ",
"+ & & = 3 > > # > < , > < 5 5 3 4 Y A S Z A c < ; , > $ & , - - ",
"& 7 3 - 5 3 5 3 h r.4.3 2 E ) 0 < 5 E p. .{ g.4 = 1 5 8 3 > = + ",
"* , l H H A 5 3 c d.w.4 c d.6.5 1 4 ) d.A G 8.m & 5 H H G c 3 * ",
"& , h H H H 5 3 1 q.d.S S b.t.R = -.l.k.A G #.1 - 5 { H G h 2 & ",
"+ > 4 f A S 5 , R I 0.^ S q.q.:., 5 f f <  . .# > 5 { H d 4 , & ",
"& > 4 f A c 5 > 5 G 0.S p 0.r.^ 3 1 f f h A ] > > 5 S A p < = + ",
"& , 5 5 5 5 3 , > A f.c c k.k.4 1 m 8.f.S f _ 1 > 1 m h 5 > & & ",
"+ - - , - - & & 2 4 S 5 5 { A 3 , 5 f A m c s # & , 2 3 , & * * ",
". X + + + + + X ; # % 2 2 % # ; & 3 4 < , > 2 * + * * & + X X o ",
"    . . X X X X . $ $ & - - + * @ & > > @ + + o X X . . . . .   "
};
