/* XPM */
static char *e6485a40e41b4d12ae6cad5c0a13ddea[] = {
/* columns rows colors chars-per-pixel */
"32 32 238 2 ",
"   c #290E04",
".  c #310F0D",
"X  c #271309",
"o  c #34160B",
"O  c #3A1808",
"+  c #2D1719",
"@  c #331412",
"#  c #391C16",
"$  c #3D2018",
"%  c #2D1D24",
"&  c #3B1E25",
"*  c #351F34",
"=  c #19253A",
"-  c #192738",
";  c #3C2525",
":  c #3B2925",
">  c #382426",
",  c #282A3A",
"<  c #362736",
"1  c #39333C",
"2  c #25212F",
"3  c #4E1C07",
"4  c #431B0C",
"5  c #491808",
"6  c #541C0B",
"7  c #571B08",
"8  c #431C1B",
"9  c #481B12",
"0  c #531D16",
"q  c #551D17",
"w  c #651F0C",
"e  c #691C16",
"r  c #44210D",
"t  c #4E240C",
"y  c #4D280E",
"u  c #53230E",
"i  c #5D280E",
"p  c #5A2509",
"a  c #4E2112",
"s  c #48251F",
"d  c #532314",
"f  c #5C2313",
"g  c #522119",
"h  c #5B2C1A",
"j  c #572917",
"k  c #5B3117",
"l  c #662A0E",
"z  c #782E0D",
"x  c #79320D",
"c  c #632514",
"v  c #642A15",
"b  c #6B2B14",
"n  c #632B1B",
"m  c #6B2C1B",
"M  c #682519",
"N  c #732E15",
"B  c #7A2E15",
"V  c #722C1D",
"C  c #7A2D1B",
"Z  c #732713",
"A  c #6E3215",
"S  c #6C331C",
"D  c #643019",
"F  c #723313",
"G  c #723917",
"H  c #75331C",
"J  c #7B341C",
"K  c #733B1C",
"L  c #7C3A1C",
"P  c #7E3316",
"I  c #4D1F22",
"U  c #501F22",
"Y  c #4D2C23",
"T  c #472927",
"R  c #572923",
"E  c #4E3129",
"W  c #5C342C",
"Q  c #573229",
"!  c #492C38",
"~  c #4A3836",
"^  c #5C3639",
"/  c #672C22",
"(  c #782E22",
")  c #6B3322",
"_  c #62332B",
"`  c #6E3B2D",
"'  c #683625",
"]  c #743322",
"[  c #7C3523",
"{  c #753B25",
"}  c #7C3A23",
"|  c #74342A",
" . c #743C2B",
".. c #7C3C2B",
"X. c #793528",
"o. c #633632",
"O. c #6A3D37",
"+. c #783A35",
"@. c #7D411F",
"#. c #5B433A",
"$. c #764329",
"%. c #684439",
"&. c #7C4234",
"*. c #73443C",
"=. c #794B39",
"-. c #6F4328",
";. c #1C2947",
":. c #1B324B",
">. c #222D42",
",. c #2B2C49",
"<. c #312E46",
"1. c #22324B",
"2. c #2A3347",
"3. c #383647",
"4. c #2B3559",
"5. c #333B57",
"6. c #343D66",
"7. c #433846",
"8. c #553949",
"9. c #463B51",
"0. c #673B44",
"q. c #3B4457",
"w. c #2E4161",
"e. c #3C4C65",
"r. c #47434E",
"t. c #574347",
"y. c #494556",
"u. c #5A4A54",
"i. c #53535D",
"p. c #565355",
"a. c #634343",
"s. c #6B4746",
"d. c #734B43",
"f. c #794842",
"g. c #7F5048",
"h. c #614252",
"j. c #665554",
"k. c #7B5D5B",
"l. c #765756",
"z. c #715050",
"x. c #736457",
"c. c #4D4B67",
"v. c #504D62",
"b. c #4A5568",
"n. c #57556A",
"m. c #414F7C",
"M. c #445872",
"N. c #505773",
"B. c #6C5B66",
"V. c #7B5F63",
"C. c #695C78",
"Z. c #5A6777",
"A. c #5E6D75",
"S. c #67696A",
"D. c #746467",
"F. c #696977",
"G. c #72707B",
"H. c #80320E",
"J. c #822C1C",
"K. c #843416",
"L. c #84341C",
"P. c #8B351C",
"I. c #863C1C",
"U. c #8B3A1C",
"Y. c #873B13",
"T. c #963A1A",
"R. c #822F05",
"E. c #823623",
"W. c #8B3724",
"Q. c #823C22",
"!. c #8A3C23",
"~. c #823D2C",
"^. c #893B2B",
"/. c #83352C",
"(. c #963C26",
"). c #A33F28",
"_. c #8B431C",
"`. c #8E4117",
"'. c #95421C",
"]. c #96451B",
"[. c #A1431C",
"{. c #A1481E",
"}. c #AA511F",
"|. c #834325",
" X c #8D4223",
".X c #84432C",
"XX c #8B442B",
"oX c #8A492F",
"OX c #944223",
"+X c #9A4425",
"@X c #964B23",
"#X c #93462C",
"$X c #9B452B",
"%X c #944A2A",
"&X c #9C4B2C",
"*X c #9A4826",
"=X c #99532A",
"-X c #834534",
";X c #844B3C",
":X c #8A4834",
">X c #9B4D33",
",X c #944A35",
"<X c #8D5539",
"1X c #9C5334",
"2X c #985439",
"3X c #A34C23",
"4X c #A34C2B",
"5X c #A84928",
"6X c #B74D2A",
"7X c #AC522C",
"8X c #A35329",
"9X c #B2532E",
"0X c #B75223",
"qX c #A34C33",
"wX c #A94F35",
"eX c #A55332",
"rX c #AB5231",
"tX c #AA5935",
"yX c #A95A3A",
"uX c #B25B34",
"iX c #B55939",
"pX c #B2633C",
"aX c #C36336",
"sX c #894F48",
"dX c #8C574A",
"fX c #955442",
"gX c #975944",
"hX c #8D554C",
"jX c #A05B49",
"kX c #AC5D4C",
"lX c #95614B",
"zX c #8D6157",
"xX c #956153",
"cX c #B06045",
"vX c #93706E",
"bX c #4B6382",
"nX c #576E8D",
"mX c #606C86",
/* pixels */
"9 + % # ; U c 8 g 6 v N w Z H u f ' [ H v ] ) d 0 t $ & + + # o ",
"5 % = - ;.< m h 6 3.7.E 7.9.W ) ]  .9.8.8.3.E v q g 2 = = = & # ",
"7 % - , :.< z i c / ` W E _ ~.[ V ^.X.X.| ` V n v n , :.;.;.> 4 ",
"f * ;.<.4.3.L.n ) !.U.P F L I.W.p ] K F i v b O v H 1 1.<., ; a ",
"d < >.<.4.7.!.' K y.h.[ o.r.a.X.E.&.u.~.C 7.^ c m [ ~ 3.1 < : 0 ",
"w n _ X.+.X.[.!.Y.%.;X(.] d.;Xx Q.;X%.!.!.a.O.] ) J W Q _ Q Y a ",
"4 d m P K.J L n ) OX'.H E.+X!.S B XXP.} +.W.P.m v x b C B ) D t ",
"4 i / ) L [ { c W.-X X`.XX#X!.{ .._..X XH.J G M n A ) V b j f 5 ",
"f E ! 9.a.&.5XK Q.+X&XrXrX*X9X#X>X>Xi.i.u.u.-XE.U.XX+.O.W E v f ",
"d j Y _ C Y.(./.#X7XeXrX4X+X7XXX].;XM.N.n.e.*.Y...$X%.t.t.~ j Y ",
"4 g E ^ ' L |.R #X7X7X4X4X4XuXoX@XfXn.c.v.b.g.U./.OX.X*.O.| V Y ",
"6 M o.+. .OX&XS  X7XrX4X4X4XuX#X@XfXn.n.n.b.g.U.Q.].$X-X%. .L 0 ",
"g Y ~ ^ #..XqX!.[ 4XeXrXrXrXaX&X{.sXn.Z.Z.M.z.T.I.&Xd.a.a.#.' f ",
"0 Y ^ 0.a.{ (.[ [ &XyXyXiXuXaX1X+X2Xl.D.k.j.hX$XL.XXd.s.s.0.` j ",
"4 q c b J z K.k H '.&X4X4X*X3XL H [.@X,X%X'. XA H G } L D m S $ ",
"m H v d [ |.qX^.oX7XyXiXpXyXyX:X1X9X8XrX9X5X&XK :X6X&XL.B L K.f ",
"C B J v E.U.4X!.%XD.D.D.F.G.vX}.*XiXdXgXk.sXwX X!.4Xd.&.L.&.~.' ",
"C L [ v E.I.$XXX=Xk.B.Z.mXV.xX=X%X8XdXbXbXx.4X!.I.&Xj.s.#.y. .A ",
"( L E.m J.K.+XXX1Xk.<XS.G.lXzX=X%XeXx.fX3XD.lX3XI.4X2XqXXX%.O.F ",
"] N C n J K.$X|.2Xl.B.A.nXG.zX%X5XtXk.1XqXD.iX1X~.,Xp.j.t.y.o.h ",
"m b Z v W.(.+X} 5Xz.S.A.A.D.zX@X1XcXF.S.Z.Z.jX*XQ.+X_.!.T.T.} k ",
"f S b v XX XL.S &XOXgXyXeX2X0X%X].kXpXdXA.uXjX X| T...~.I. XP.R ",
"4 y u y S G A t ) ] I.J .. XOXK H ].>X*X).>X+XS k L N / c l h r ",
"M c C ] J.W.$XV OXfX:XS Q.9X7XXX_.>X}.iX9X=X<XI.H OX@.{ m n R u ",
"6 : ,.3.q.r.P...#Xi.sXOX~.l.&X$X^.].z.gX6X-Xj.+X) L.y.q.3.2.Y d ",
"7 ; ,.5.6.9.P.J OX:Xi.|.f.nX2X_.L 5XC.zX[.s.*.J.b L q.w.4.1.T t ",
"u : ,.3.5.7.L.K #X,Xp.XX5X0XaX%XH '.#X#X-.e.` v S Q.r.5.3.>.T r ",
"q ; <.2.2.! C V U.f.c.(. XsXcX$X/.'..X#X(.u.*.C ] ~.3.2.2.- ; 9 ",
"0 > >.:.:.1 / f R.O.y.U.-.m.f.Q.E.Y.e.f.T.r.t.z V X.1 1.:.- T a ",
"5 # & ; T s c 6 N o.` { I.+.G D N L 0.(.-.~ ^ l f m Y ! T > 8 O ",
"  X O 5 5 5 5 o f m M D C ( f u d _ N F h p i 0 4 3 3 6 3 O o   ",
"  X . @ o o 8 @ o d 9 3 j y I r e k i R 6 9 g # @ o o @ X X +   "
};
