/* XPM */
static char *_b4f6bc71c014c34b9abd22e55f1fc6czURlX5io73OsvH8y[] = {
/* columns rows colors chars-per-pixel */
"32 32 246 2 ",
"   c #18051B",
".  c #1A0622",
"X  c #1C0A24",
"o  c #1B0A2B",
"O  c #150925",
"+  c #240D26",
"@  c #25072B",
"#  c #2A172A",
"$  c #240433",
"%  c #2B0936",
"&  c #2C033C",
"*  c #2C0B3B",
"=  c #260836",
"-  c #32033A",
";  c #330C3D",
":  c #35083A",
">  c #2C1535",
",  c #381A3C",
"<  c #2B3C26",
"1  c #31372A",
"2  c #2D2A37",
"3  c #352938",
"4  c #2E3432",
"5  c #343935",
"6  c #32292E",
"7  c #412C3D",
"8  c #2C741A",
"9  c #2A631C",
"0  c #33492D",
"q  c #374737",
"w  c #31502D",
"e  c #2B6D23",
"r  c #2E6727",
"t  c #356827",
"y  c #367628",
"u  c #3D623A",
"i  c #386B36",
"p  c #3E7435",
"a  c #3C7A38",
"s  c #414230",
"d  c #435E35",
"f  c #426B35",
"g  c #47673B",
"h  c #467A3A",
"j  c #2D0442",
"k  c #2D0546",
"l  c #350443",
"z  c #340C44",
"x  c #3B0A44",
"c  c #3D034C",
"v  c #36094A",
"b  c #3C0B4C",
"n  c #370647",
"m  c #2E1340",
"M  c #371649",
"N  c #3D0351",
"B  c #3C0B53",
"V  c #380554",
"C  c #3E1156",
"Z  c #3E2049",
"A  c #352A43",
"S  c #3B3C48",
"D  c #3F285E",
"F  c #3F1360",
"G  c #410C4E",
"H  c #40074C",
"J  c #41144C",
"K  c #430452",
"L  c #430C53",
"P  c #4C0B55",
"I  c #45025C",
"U  c #4B035B",
"Y  c #450B58",
"T  c #4C0C5B",
"R  c #4C0655",
"E  c #520C5D",
"W  c #560758",
"Q  c #441254",
"!  c #4A1D55",
"~  c #46105C",
"^  c #4C125B",
"/  c #481C59",
"(  c #531B5B",
")  c #531259",
"_  c #45284C",
"`  c #483946",
"'  c #462455",
"]  c #51255A",
"[  c #4A3759",
"{  c #57355D",
"}  c #440E63",
"|  c #4C0B63",
" . c #4D0B6A",
".. c #4A0566",
"X. c #530D64",
"o. c #54046C",
"O. c #540D6C",
"+. c #5C0D6C",
"@. c #5A0A69",
"#. c #4C1363",
"$. c #4C1C61",
"%. c #4E1669",
"&. c #401A65",
"*. c #521363",
"=. c #5A1465",
"-. c #531B64",
";. c #53146B",
":. c #5C146C",
">. c #5A1A6D",
",. c #5B1865",
"<. c #550E72",
"1. c #5D0D74",
"2. c #580676",
"3. c #561472",
"4. c #5D1473",
"5. c #5E157B",
"6. c #591977",
"7. c #4C1371",
"8. c #64136B",
"9. c #630D74",
"0. c #630D7B",
"q. c #6B0C76",
"w. c #631373",
"e. c #631C74",
"r. c #691B75",
"t. c #62147C",
"y. c #6C147D",
"u. c #631B7B",
"i. c #6B1B7B",
"p. c #73107C",
"a. c #4A2861",
"s. c #572669",
"d. c #4B3060",
"f. c #4B3965",
"g. c #583766",
"h. c #5C2E74",
"j. c #5B2676",
"k. c #64276D",
"l. c #632577",
"z. c #6B347D",
"x. c #6A3A79",
"c. c #74377B",
"v. c #3C4943",
"b. c #3E5C50",
"n. c #3C5343",
"m. c #444846",
"M. c #485249",
"N. c #4D4D52",
"B. c #464B53",
"V. c #54475B",
"C. c #4B5956",
"Z. c #55565C",
"A. c #585C59",
"S. c #50564C",
"D. c #496A47",
"F. c #44794A",
"G. c #477545",
"H. c #4B6453",
"J. c #586956",
"K. c #577557",
"L. c #55764D",
"P. c #627A5B",
"I. c #65755B",
"U. c #4E4061",
"Y. c #574862",
"T. c #595664",
"R. c #574873",
"E. c #644768",
"W. c #6B536C",
"Q. c #655C66",
"!. c #70526C",
"~. c #664672",
"^. c #75447C",
"/. c #734E7D",
"(. c #6D5A78",
"). c #7B5C7E",
"_. c #755A77",
"`. c #5D6865",
"'. c #5A7E62",
"]. c #636965",
"[. c #65656B",
"{. c #65736B",
"}. c #697865",
"|. c #71766D",
" X c #6E6578",
".X c #736E74",
"XX c #756678",
"oX c #757774",
"OX c #6E6F6F",
"+X c #2F812F",
"@X c #3B8633",
"#X c #42803F",
"$X c #4B9534",
"%X c #558749",
"&X c #44904F",
"*X c #578955",
"=X c #569757",
"-X c #4D8347",
";X c #62875D",
":X c #66965A",
">X c #698865",
",X c #748C6B",
"<X c #6B9A65",
"1X c #719965",
"2X c #76A668",
"3X c #650C81",
"4X c #6C0A83",
"5X c #740B86",
"6X c #651581",
"7X c #6C1483",
"8X c #621A83",
"9X c #6A1A84",
"0X c #6B148D",
"qX c #6E1C8B",
"wX c #641289",
"eX c #711C82",
"rX c #73148B",
"tX c #74198C",
"yX c #7B1B8D",
"uX c #711684",
"iX c #691995",
"pX c #7B1394",
"aX c #7C1E94",
"sX c #751494",
"dX c #6B0B90",
"fX c #6D2484",
"gX c #672789",
"hX c #762788",
"jX c #753B87",
"kX c #782592",
"lX c #7C3594",
"zX c #673C83",
"xX c #754985",
"cX c #735582",
"vX c #6A5485",
"bX c #796F83",
"nX c #820996",
"mX c #851A9B",
"MX c #84169C",
"NX c #8B259B",
"BX c #833C8C",
"VX c #8619A5",
"CX c #8E15A3",
"ZX c #A021B9",
"AX c #8C35A8",
"SX c #844493",
/* pixels */
"= # 1 5 5 7 K m * b B L K I *.v B ( ' ] ] -.$.M ; - 6 5 4 < 6 j ",
"& 4 e r +Xg Y b x q d M.m.g S.T U j.D.H.C.g n.B = ; 0 r r 9 0 = ",
"$ 1 8 u a f U b b  .4.s.Q *.3.<.T @.;.<.^ -.T K B | q e 9 r 0 l ",
"k q 8 i @Xp  .} Q s.h.:.K [ a.1.M T ;.o.K | L ; B X.v.e t t 0 ; ",
"l 4 t D.h g :.O.*.J.K.s.! %XL.2.T j.K.V.~ m.u L z #.m.u M.q q * ",
"c M ' 6.s.s.3X1.4.h.l.5.>.g.s.0.O.9XY.s.o.s.Y.;.Q O.! _ ! Z M n ",
": x R O.<.+.:.X.E 9X7X#.T y.t.X.~ =.;.+.( 1.2.Q b | B Y Y b L z ",
"= M U #.3.+.$.Y :.r.e.tXyXi.r.>.=.7X>.3X;.^ #.~ G #.} ..Y N N % ",
"z _ n.b.H.k.w.4.:.W.{.].}.{._.7Xr.rX'.=XL.D.R.*.%.6XY.h.v.S 2 V ",
"l ' s _ | +.8X6Xi.XX{.>X<XK. X7X:.fX%X%X%X%XT.O.>.w.Y.S.V.N._ x ",
"+ V S [ N.0.e.^ 9X).SX|.,XxXXX7Xe.kXP.%X*X%XT.w.1.4.<.g.s.g.I z ",
"n L a.d.{ y.tX9.t.[.|.1X2X>X.XyXi.tX}.=X&X-XQ.3X4.u.t.h.g.U.| b ",
"& _ g g.Z.k.gXrX1.T..X>X,XoX).mX9XgXI.>X*X*X[.dX-.3X~.Z.V.C.U.I ",
"% ' ` B.f.k.9.6X-.VXNXNXNXNXZXNXw.eXE.^./.W.~.eX*.0.f.V.d.[ [ L ",
"@ n V V | @.) L E 7XyXMXpXy.yXuX:.5Xy.rXuX4X4.8.E 9.>.W ^ c B ; ",
"T Y P z T *.sX,.:.9XjXlXjXx.kXeXqXhXhXMXpXaXgX+.-.VXsX0.K 7. .Y ",
" .X.*.Q <.6XkXu.+.]..X_.!.[.bXpXl.pXxXjX]./.z.0.w.wXE.g.! d.$.| ",
"| X.O.^ O.1.qXt.t.T.(.OX.X/. XuX8.aXx.:X=X`.hXu.=.iXE.W.g.N.B.E ",
"^ *. .^ ;.+.7X8X1.E.J.*XP.Q.~.X.yXeXQ./.nXcX(.aX-.wXz.eX9.V.N.Q ",
"^ T | L ;.:.7Xu.MXW.}.;X}.OX).mXj.CXcXxXnX{.lXmX:.0X`.H.N.H.m.U ",
"L L Y L 3.t.9X=.3X(.oX`.].oXXXrXy.AXbX;X>X<X).rXw.5.9.0.O.o.O.Q ",
"v G L G 3.t.t.P e.fXc.lXSX^.hXrXp.c.CXBX;XhXyXyX) 5.-.^ *.3.*.C ",
"& b B b ;.+.O.L E X.1.E +.4Xy.r.E 8.eXaX4XpXpX*.L X.#.K x &.P z ",
"; J } L ;.=.4.*.:.kXzX$.:.tXmXl.%.8XsXpXqXjXg.u.Q <.;.>.^ v , c ",
"k 3 t F.G.G.4.3.q.K.W.0Xs.].z.7X/ w.T.vXnXl.`.j.Q @.C.F.f y v.n ",
"j 6 y a h h :.:.1.gXP.6.d.=XjX0X@.0.J. X4XE.Z.2.B O.C.#Xp y q j ",
"* 4 t a a h *.#.-.qXJ.g.t.pXCXfXR u.5.q.| J.N.K J :.A.h f y 0 % ",
"j 3 t y p g ^ | <.j.G.j.9.x.lX7XE 2.j.k.1.Y.Z.o.L 3.C.p i i 0 & ",
"= 4 r 8 e r J L ..` h $.( $XA.0./ } G.`.3.M.f #.H ^ q e r r 1 : ",
"& > 3 2 A 2 K V N D ] F  .] / ..b %.{ 5.%.B.` B v Y Z 3 A 2 > & ",
"  . @ @ & @ - X ; ..K B Q T c v n L K T ~ N H c = - - - - $ . . ",
"  O . X $ o : X o x # v z n ; > x L M x N @ * + o + + X X o O . "
};
